<svg width="122" height="65" viewBox="0 0 122 65" fill="none" xmlns="http://www.w3.org/2000/svg">
<mask id="mask0_343_2042" style="mask-type:luminance" maskUnits="userSpaceOnUse" x="0" y="0" width="122" height="65">
<path d="M122 0H0V65H122V0Z" fill="white"/>
</mask>
<g mask="url(#mask0_343_2042)">
<path d="M18.375 7.69293C27.499 3.73185 38.0899 7.95575 42.03 17.1278C44.5448 22.9808 45.4962 30.9477 44.9784 38.4047C44.4649 45.8008 42.5101 52.6146 39.2811 56.3557C34.358 56.1536 28.0836 52.9125 22.3757 48.2173C16.6209 43.4836 11.5041 37.3251 8.98951 31.4718C5.0492 22.3 9.25138 11.6536 18.375 7.69293Z" fill="#FFF6D7"/>
<path d="M25.315 38.6321C33.5689 38.6321 40.26 32.043 40.26 23.9151C40.26 15.7871 33.5689 9.1981 25.315 9.1981C17.0611 9.1981 10.37 15.7871 10.37 23.9151C10.37 32.043 17.0611 38.6321 25.315 38.6321Z" fill="#481515"/>
<path d="M23.4387 31.814L23.4618 32.0894C23.6406 34.2282 22.061 36.1083 19.9334 36.288C17.8053 36.4678 15.9354 34.8797 15.7563 32.7409L14.6101 19.0424" fill="#FFF6D7"/>
<path d="M33.5995 23.7622L33.8566 23.8601C35.8535 24.6197 38.0854 23.6087 38.841 21.6013C39.5969 19.5934 38.5909 17.3501 36.594 16.5901L23.8045 11.7237" fill="#FFF6D7"/>
<path d="M18.703 13.9256C21.1392 12.2229 23.1878 11.6596 25.0833 12.1544C26.9968 12.6539 28.8581 14.2565 30.8507 17.1375C32.8431 20.0185 33.6888 22.3302 33.4883 24.3073C33.2894 26.2657 32.0511 28.0005 29.6148 29.7033C27.1784 31.4059 25.1296 31.9686 23.2341 31.4739C21.3205 30.9743 19.4596 29.3723 17.467 26.4913C15.4744 23.6101 14.6284 21.2981 14.8291 19.3209C15.028 17.3626 16.2666 15.6284 18.703 13.9256Z" fill="#FFF6D7"/>
<path d="M100.235 34.3395H80.5767L79.3 22.0753H101.26L100.235 34.3395Z" fill="#FFF6D7" stroke="#FFF6D7" stroke-width="2" stroke-linecap="round"/>
<path d="M103.09 22.0963C97.5744 17.8007 94.6805 15.0435 90.3349 9.66134C90.1543 9.43739 89.8579 9.43721 89.6767 9.66127C85.483 14.8753 82.7038 17.6753 77.1522 22.0538" fill="#FFF6D7"/>
<path d="M103.09 22.0963C97.5744 17.8007 94.6805 15.0435 90.3349 9.66134C90.1543 9.43739 89.8579 9.43721 89.6767 9.66127C85.483 14.8753 82.7038 17.6753 77.1522 22.0538L103.09 22.0963Z" stroke="#481515" stroke-linecap="round"/>
<path d="M40.3 56.567C40.2108 56.5596 40.1214 56.586 40.0511 56.6425C39.9808 56.6991 39.9355 56.7808 39.925 56.87C39.9146 56.9593 39.9399 57.0493 39.9952 57.1207C40.0505 57.192 40.1315 57.2386 40.22 57.2521C42.4087 57.587 44.6208 57.8665 46.8291 58.1178C55.6609 59.1041 64.5203 59.7112 73.3989 60.039C74.6463 60.0828 75.8944 60.1213 77.1382 60.1505L77.1211 60.1499C82.5995 60.3356 88.0773 60.1497 93.5337 59.3419C96.2556 58.9182 98.9816 58.3458 101.611 57.2756C104.111 56.2311 107.193 54.4431 107.564 51.0251C107.894 48.262 105.448 46.3601 103.511 45.5892C101.451 44.7245 99.3123 44.3856 97.1992 44.2144C92.9445 43.9041 88.7471 44.348 84.6161 45.123C82.0621 45.6022 79.4244 45.7325 77.0198 45.0346C74.6463 44.4356 72.4485 42.2861 73.5062 40.037C75.923 35.6894 82.1829 34.8754 87.2025 34.5967C89.4095 34.5104 91.5653 34.5822 93.8076 34.7689C93.8979 34.7765 93.9876 34.7484 94.0571 34.6902C94.1273 34.6319 94.1712 34.5484 94.1797 34.4579C94.1883 34.3673 94.1608 34.277 94.1029 34.2067C94.0455 34.1363 93.9626 34.0918 93.8723 34.0821C91.611 33.8423 89.429 33.7192 87.1788 33.759C82.0358 34.0287 75.6687 34.2977 72.4558 39.5776C71.7927 40.952 72.0355 42.7839 73.0152 43.9539C73.9588 45.1455 75.3094 45.8409 76.6465 46.2653C79.3531 47.0925 82.1633 46.9708 84.8669 46.5072C88.9191 45.8042 93.0244 45.4316 97.0717 45.7742C100.79 46.0983 106.133 47.3394 105.895 50.8512C104.968 55.5673 98.2008 56.7236 93.2696 57.5684C87.976 58.3289 82.5476 58.5007 77.1973 58.3135L77.1809 58.3129C75.9468 58.283 74.7049 58.2441 73.4629 58.2005C64.6173 57.8739 55.7635 57.5129 46.9224 57.018C44.7114 56.8895 42.4951 56.7483 40.3 56.567Z" fill="#FFF6D7"/>
<path d="M63.2668 8.48133C72.2264 12.8048 76.0036 23.611 71.7025 32.6177C68.9581 38.3655 63.601 44.3141 57.6629 48.8135C51.7734 53.2761 45.3754 56.2633 40.4483 56.268C37.3701 52.4004 35.6871 45.5137 35.4673 38.1029C35.2457 30.6312 36.5123 22.7089 39.257 16.9611C43.5578 7.9544 54.3076 4.15788 63.2668 8.48133Z" fill="#FFF6D7" stroke="#481515" stroke-width="2"/>
<path d="M55.815 38.6321C64.0689 38.6321 70.76 32.043 70.76 23.9151C70.76 15.7871 64.0689 9.1981 55.815 9.1981C47.5611 9.1981 40.87 15.7871 40.87 23.9151C40.87 32.043 47.5611 38.6321 55.815 38.6321Z" fill="#481515"/>
<path d="M53.1314 10.1209C53.3256 10.101 53.5189 10.1695 53.714 10.3203L53.7135 10.321C54.1105 10.6278 54.4798 11.2471 54.8152 11.9829C55.1486 12.7139 55.4402 13.5383 55.6912 14.2386C55.8163 14.5878 55.9315 14.9067 56.0364 15.1649L56.1132 15.3462C56.1889 15.5181 56.2619 15.6595 56.3325 15.7502L56.3573 15.7826L56.4001 15.7915C57.792 16.0887 59.1464 16.6809 60.3688 17.5781L60.6116 17.7613L60.613 17.7624C61.8125 18.7075 62.7513 19.8623 63.4144 21.1323L63.5425 21.3878L63.5431 21.3883L63.5614 21.4261L63.6004 21.4433L63.5998 21.4434C63.7395 21.5054 63.9658 21.5501 64.2354 21.5886C64.5106 21.6278 64.8473 21.6627 65.2145 21.6993C65.9514 21.7729 66.8182 21.8558 67.6045 22.0022C68.3963 22.1495 69.0837 22.3577 69.4772 22.6697L69.4766 22.6698C69.6455 22.8038 69.7535 22.9514 69.7968 23.1165L69.8115 23.1885L69.8182 23.2546C69.8249 23.4115 69.7803 23.5965 69.6626 23.8143L69.5986 23.9237C68.98 24.9147 67.6697 26.4851 66.2771 28.0499C64.8875 29.6123 63.4217 31.1633 62.4969 32.1134L62.4921 32.1188L62.4884 32.1215L62.4878 32.1234C59.0606 36.5432 52.6604 37.2949 48.1776 33.8033L48.1763 33.8021C43.7139 30.2851 42.8756 23.8624 46.3018 19.4423L46.307 19.4346L46.3091 19.4313C46.9996 18.2977 48.1377 16.49 49.3054 14.753C50.4748 13.0136 51.669 11.3529 52.4737 10.5075C52.7164 10.2525 52.936 10.141 53.1314 10.1209Z" fill="#FFF6D7"/>
<path d="M56.1588 29.7529L59.7181 32.5414" stroke="#FFF6D7" stroke-width="0.8" stroke-linecap="round"/>
<path d="M56.1874 28.7577L60.9099 30.4667" stroke="#FFF6D7" stroke-width="0.8" stroke-linecap="round"/>
<path d="M58.0189 34.3518L55.2166 30.1658" stroke="#FFF6D7" stroke-width="0.8" stroke-linecap="round"/>
<path d="M50.5162 25.361L46.5572 22.2595" stroke="#FFF6D7" stroke-width="0.8" stroke-linecap="round"/>
<path d="M51.3264 24.949L48.5241 20.763" stroke="#FFF6D7" stroke-width="0.8" stroke-linecap="round"/>
<path d="M45.4821 24.5305L50.2047 26.2396" stroke="#FFF6D7" stroke-width="0.8" stroke-linecap="round"/>
<path d="M23.1752 22.8411L24.7135 21.7659C25.2229 21.41 25.9284 21.6244 26.1566 22.205L26.578 23.2831C26.7412 23.6991 26.5985 24.1745 26.2328 24.4301L25.131 25.2001C24.7655 25.4556 24.2725 25.4251 23.9406 25.1263L23.0828 24.3533C22.6205 23.9364 22.6661 23.1968 23.1752 22.8411Z" fill="#FFF6D7"/>
<path d="M56.1588 30.3661L59.7181 33.1547" stroke="#481515" stroke-width="0.8" stroke-linecap="round"/>
<path d="M56.1874 29.3709L60.9099 31.0799" stroke="#481515" stroke-width="0.8" stroke-linecap="round"/>
<path d="M58.0189 34.965L55.2166 30.779" stroke="#481515" stroke-width="0.8" stroke-linecap="round"/>
<path d="M50.5162 25.9742L46.5572 22.8727" stroke="#481515" stroke-width="0.8" stroke-linecap="round"/>
<path d="M51.3264 25.5622L48.5241 21.3762" stroke="#481515" stroke-width="0.8" stroke-linecap="round"/>
<path d="M45.4821 25.1437L50.2047 26.8529" stroke="#481515" stroke-width="0.8" stroke-linecap="round"/>
<path d="M23.7852 22.8411L25.3235 21.7659C25.8329 21.41 26.5384 21.6244 26.7666 22.205L27.1879 23.2831C27.3512 23.6991 27.2085 24.1745 26.8428 24.4301L25.741 25.2001C25.3755 25.4556 24.8825 25.4251 24.5506 25.1263L23.6928 24.3533C23.2304 23.9364 23.2761 23.1968 23.7852 22.8411Z" fill="#481515"/>
</g>
</svg>
