<svg width="44" height="44" viewBox="0 0 44 44" fill="none" xmlns="http://www.w3.org/2000/svg">
<path d="M38.2067 8.45166C37.2703 7.51484 36.1585 6.77168 34.9349 6.26465C33.7112 5.75762 32.3996 5.49665 31.0751 5.49665C29.7505 5.49665 28.4389 5.75762 27.2152 6.26465C25.9916 6.77168 24.8798 7.51484 23.9434 8.45166L22.0001 10.395L20.0567 8.45166C18.1653 6.56023 15.5999 5.49763 12.9251 5.49763C10.2502 5.49763 7.68482 6.56023 5.79339 8.45166C3.90195 10.3431 2.83936 12.9084 2.83936 15.5833C2.83936 18.2582 3.90195 20.8236 5.79339 22.715L22.0001 38.9217L38.2067 22.715C39.1435 21.7786 39.8867 20.6668 40.3937 19.4431C40.9008 18.2195 41.1617 16.9079 41.1617 15.5833C41.1617 14.2588 40.9008 12.9472 40.3937 11.7235C39.8867 10.4998 39.1435 9.38805 38.2067 8.45166Z" fill="#EA654C" stroke="#EA654C" stroke-width="4" stroke-linecap="round" stroke-linejoin="round"/>
</svg>
