<svg width="106" height="77" viewBox="0 0 106 77" fill="none" xmlns="http://www.w3.org/2000/svg">
<ellipse cx="52.6712" cy="39.6254" rx="52.6712" ry="37.0649" fill="#EA654C"/>
<path d="M3.90139 1.91039C0.259924 5.81196 2.38411 20.6596 3.90139 27.5957C11.4878 22.3936 26.4006 11.4042 25.3602 9.06327C24.0596 6.13709 8.45322 -2.96657 3.90139 1.91039Z" fill="#EA654C" stroke="#EA654C"/>
<path d="M103.443 3.97094C107.085 7.87251 104.961 22.7201 103.443 29.6563C95.857 24.4542 80.9443 13.4648 81.9847 11.1238C83.2852 8.19764 98.8916 -0.90602 103.443 3.97094Z" fill="#EA654C" stroke="#EA654C"/>
<path d="M50.9857 55.7233C50.1357 55.7235 49.5106 55.3404 49.1104 54.5738C48.7102 53.8073 48.5182 52.849 48.5346 51.699C48.6167 47.649 48.674 43.9489 48.7064 40.5989C48.7554 37.2489 48.7795 34.3072 48.7788 31.7739C48.7786 31.1572 48.5368 30.7823 48.0535 30.6491C47.5701 30.5326 47.1452 30.7327 46.7786 31.2495C45.8123 32.5164 44.9211 33.8584 44.1048 35.2753C43.2886 36.7088 42.4306 38.0591 41.531 39.326C40.8146 40.3762 40.0482 41.0681 39.2316 41.4017C38.4317 41.7519 37.5816 41.5021 36.6814 40.6524C35.9645 40.0526 35.7476 39.261 36.0307 38.2776C36.3304 37.3108 36.8301 36.3357 37.5298 35.3522C38.2962 34.2353 39.1625 33.0517 40.1288 31.8014C41.0951 30.5511 42.1364 29.2675 43.2527 27.9505C44.369 26.6502 45.5269 25.3582 46.7266 24.0745C47.2264 23.5244 47.7763 23.1242 48.3762 22.874C48.9762 22.6239 49.5928 22.4987 50.2261 22.4985C50.8761 22.4983 51.5178 22.6315 52.1512 22.8979C52.7846 23.1644 53.3598 23.5476 53.8766 24.0474C55.8605 25.9635 57.9111 28.0963 60.0284 30.4457C62.1624 32.795 64.1298 35.0695 65.9304 37.269C66.614 38.1354 67.0642 38.9603 67.2811 39.7436C67.5147 40.5435 67.3815 41.2185 66.8817 41.7687C66.2652 42.5022 65.5236 42.7441 64.6569 42.4943C63.7902 42.2612 62.915 41.6198 62.0313 40.5701C60.5308 38.8372 59.2387 37.2459 58.155 35.7962C57.0712 34.3632 55.8791 32.8885 54.5787 31.3722C54.1786 30.9224 53.8118 30.7641 53.4785 30.8976C53.1453 31.031 52.9787 31.3727 52.9788 31.9227C53.063 34.9227 53.164 38.0976 53.2816 41.4476C53.4159 44.7976 53.5169 48.4142 53.5847 52.2975C53.6184 53.5809 53.3854 54.4726 52.8855 54.9727C52.4023 55.4729 51.7691 55.7231 50.9857 55.7233Z" fill="#FFF6D7"/>
</svg>
